<svg id="Слой_1" data-name="Слой 1" xmlns="http://www.w3.org/2000/svg" viewBox="0 0 732.67 129.18"><path d="M218.42,609.19,183.58,485.33h47.83L248.06,556l40.55-70.64H337L260,609.19Z" transform="translate(-183.58 -482.18)"/><path d="M334.89,608.22l20.8-122.89h46l-20.8,122.89Z" transform="translate(-183.58 -482.18)"/><path d="M550.43,534.68q0,8.48-2.86,22.5h-88.4q1.31,9.44,11.31,14.27t25.61,4.84a97,97,0,0,0,42.12-9.92l-5.46,33.38q-17.16,11.63-49.66,11.62-29.38,0-48.62-16.21-19.25-16.45-19.24-42.82,0-30.24,21.32-50.08,21.58-20.07,53.3-20.08,27,0,43.68,14.52Q550.43,511.21,550.43,534.68Zm-87.88-.24h43.94q.52-9.44-4.42-15.12t-14.3-5.69A24,24,0,0,0,472,519.32,29,29,0,0,0,462.55,534.44Z" transform="translate(-183.58 -482.18)"/><path d="M626.09,609.19H586.83l-22.1-123.86h44.46L619.59,548l31.72-63.14h36.4L698.63,548l31.2-62.65h46.28l-65,123.86H671.59l-12.48-63.14Z" transform="translate(-183.58 -482.18)"/><path d="M845.79,482.18q30.68,0,50.44,17.42,20,17.17,20,44.51t-21.06,47.18q-21.06,20.07-52.78,20.08-30.42,0-50.44-17.18-19.76-17.41-19.76-45,0-27.09,21.06-46.93Q814.33,482.19,845.79,482.18Zm-3.64,93.14q12.23,0,21.32-9.19,8.84-9.2,8.84-23,0-11.13-7.41-18t-18.85-6.89q-12.22,0-21.32,9.43-8.58,9-8.58,22.5,0,11.37,7.41,18.27T842.15,575.32Z" transform="translate(-183.58 -482.18)"/></svg>